<svg xmlns="http://www.w3.org/2000/svg" width="512" height="409.6" viewBox="0 0 512 409.6">
    <path d="M256,204.8a76.8,76.8,0,1,0,76.8,76.8A76.81,76.81,0,0,0,256,204.8ZM460.8,128H399.36c-8.45,0-17.55-6.55-20.22-14.57L363.26,65.77c-2.68-8-11.77-14.57-20.22-14.57H169c-8.45,0-17.55,6.55-20.22,14.57l-15.88,47.66c-2.68,8-11.77,14.57-20.22,14.57H51.2A51.35,51.35,0,0,0,0,179.2V409.6a51.35,51.35,0,0,0,51.2,51.2H460.8A51.35,51.35,0,0,0,512,409.6V179.2A51.35,51.35,0,0,0,460.8,128ZM256,409.6a128,128,0,1,1,128-128A128,128,0,0,1,256,409.6ZM442.88,215a17.92,17.92,0,1,1,17.92-17.92A17.92,17.92,0,0,1,442.88,215Z"
          transform="translate(0 -51.2)" fill="rgba(0,0,0,.3)"/>
</svg>